<svg xmlns="http://www.w3.org/2000/svg" xmlns:xlink="http://www.w3.org/1999/xlink" viewBox="0 0 800 36" xmlns:v="https://vecta.io/nano"><g fill="#fbb800"><use xlink:href="#B"/><path d="M245.9 27.8h-4.4v-9.7c0-1.4-.2-2.4-.7-3s-1.2-1-2-1c-.4 0-.9.1-1.4.3s-.9.4-1.3.7a5.73 5.73 0 0 0-1.1 1.1c-.3.4-.6.9-.7 1.5v10.1h-4.4V10.5h4v3.2c.6-1.1 1.6-2 2.8-2.6s2.6-.9 4.1-.9c1.1 0 2 .2 2.6.6s1.2.9 1.6 1.6c.4.6.6 1.4.8 2.2l.2 2.5v10.7zm10.7.1c-1.2 0-2.2-.2-3.2-.7-.9-.5-1.8-1.1-2.5-1.9s-1.2-1.7-1.6-2.8-.6-2.2-.6-3.4c0-1.3.2-2.4.6-3.5s.9-2 1.6-2.8 1.6-1.5 2.5-1.9c1-.5 2.1-.7 3.3-.7 1.3 0 2.5.3 3.5.9s1.8 1.4 2.5 2.4v-3h3.9V27c0 1.3-.2 2.4-.7 3.4s-1.1 1.9-2 2.6c-.8.7-1.9 1.2-3 1.6-1.2.4-2.5.6-3.8.6-1.9 0-3.5-.3-4.8-.9s-2.4-1.5-3.3-2.7l2.4-2.3c.7.8 1.5 1.5 2.5 1.9s2.1.7 3.2.7c.7 0 1.3-.1 2-.3.6-.2 1.2-.5 1.7-.9s.9-.9 1.1-1.5c.3-.6.4-1.3.4-2.2v-2.2c-.6 1-1.4 1.8-2.4 2.3s-2.1.8-3.3.8zm1.5-3.5c.5 0 .9-.1 1.4-.2l1.2-.6c.4-.3.7-.6 1-.9.3-.4.5-.7.7-1.1v-4.1c-.4-1-1-1.8-1.9-2.4-.8-.6-1.7-.9-2.7-.9-.7 0-1.3.1-1.8.4-.6.3-1 .7-1.4 1.2s-.7 1.1-.9 1.7-.3 1.3-.3 2 .1 1.4.4 2c.2.6.6 1.2 1 1.6.4.5.9.8 1.5 1.1.4 0 1.1.2 1.8.2zm12.6-20.7h4.4v18.5c0 .6.2 1.1.5 1.5s.7.5 1.3.5c.3 0 .6 0 .9-.1l.9-.3.6 3.4c-.6.3-1.3.5-2.1.7s-1.5.2-2.1.2c-1.4 0-2.5-.4-3.2-1.1-.8-.7-1.1-1.8-1.1-3.2V3.7zm10.5 4.4V3.7h4.4v4.4h-4.4zm0 19.7V10.5h4.4v17.3h-4.4zm14.9.3c-1.5 0-2.9-.2-4.3-.7s-2.6-1.1-3.6-2l1.6-2.8c1.1.7 2.1 1.3 3.1 1.7s2 .6 3 .6c.9 0 1.6-.2 2.1-.5s.8-.8.8-1.4-.3-1.1-.9-1.4-1.6-.6-2.9-1l-2.9-.9c-.8-.3-1.4-.6-1.9-1s-.8-.8-1.1-1.3c-.2-.5-.3-1-.3-1.7 0-.9.2-1.7.5-2.4s.8-1.3 1.4-1.8 1.3-.9 2.2-1.1c.8-.3 1.7-.4 2.7-.4 1.3 0 2.5.2 3.6.6s2.2 1 3.1 1.8l-1.8 2.7c-.9-.7-1.7-1.1-2.6-1.5s-1.6-.5-2.5-.5c-.7 0-1.4.2-1.9.5s-.8.8-.8 1.5c0 .3.1.6.2.8s.3.4.6.5c.3.2.6.3 1 .4l1.6.4 3.1.9c.8.3 1.5.7 2.1 1.1.5.4.9.9 1.2 1.4s.4 1.1.4 1.9c0 1.7-.6 3-1.9 4-1 1.1-2.7 1.6-4.9 1.6zm26-.3h-4.4v-9.7c0-1.4-.3-2.4-.8-3s-1.2-1-2.1-1c-.4 0-.8.1-1.3.3-.4.2-.9.4-1.3.7a5.73 5.73 0 0 0-1.1 1.1c-.3.4-.6.9-.7 1.5v10.1H306V3.7h4.4v10c.6-1.1 1.5-2 2.6-2.6s2.3-.9 3.6-.9c1.1 0 2 .2 2.7.6s1.3.9 1.6 1.5c.4.6.7 1.4.8 2.2.2.8.2 1.6.2 2.5v10.8zm14.2-.9c-.6.3-1.3.5-2.2.8s-1.8.4-2.7.4c-.6 0-1.2-.1-1.7-.2-.5-.2-1-.4-1.4-.7s-.7-.8-1-1.3a5.44 5.44 0 0 1-.4-2V14h-2.3v-3.4h2.3V4.9h4.4v5.6h3.6v3.4h-3.6v8.4c0 .6.2 1.1.5 1.3s.7.4 1.2.4.9-.1 1.4-.2c.4-.2.8-.3 1.1-.4l.8 3.5z"/><use xlink:href="#B" x="128.5"/><path d="M363.1 28.1c-.8 0-1.6-.1-2.3-.4s-1.4-.7-1.9-1.2a6.57 6.57 0 0 1-1.2-1.7c-.3-.7-.4-1.4-.4-2.2s.2-1.6.5-2.3a6.55 6.55 0 0 1 1.5-1.8c.6-.5 1.4-.9 2.3-1.1.9-.3 1.9-.4 3-.4.8 0 1.5.1 2.3.2.7.1 1.4.3 2 .6v-1c0-1.1-.3-2-1-2.6-.6-.6-1.6-.9-2.9-.9-.9 0-1.8.2-2.7.5s-1.8.8-2.7 1.5l-1.4-2.8c2.2-1.5 4.6-2.2 7.2-2.2 2.5 0 4.4.6 5.8 1.8s2.1 3 2.1 5.3v5.4c0 .5.1.8.2 1 .2.2.4.3.8.3v3.8c-.7.2-1.4.2-1.9.2-.8 0-1.5-.2-1.9-.6-.5-.4-.7-.9-.8-1.5l-.1-1c-.8 1-1.7 1.8-2.8 2.3-1.3.6-2.5.8-3.7.8zm1.2-3.2c.7 0 1.5-.1 2.1-.4.7-.3 1.2-.6 1.6-1.1.5-.4.7-.8.7-1.3v-2c-.5-.2-1.1-.4-1.7-.5s-1.2-.2-1.8-.2c-1.1 0-2.1.3-2.8.8s-1.1 1.2-1.1 2c0 .7.3 1.4.9 1.9s1.3.8 2.1.8zm11.9-5.7c0-1.2.2-2.4.6-3.4.4-1.1 1-2 1.8-2.8s1.7-1.5 2.9-1.9c1.1-.5 2.4-.7 3.8-.7 1.9 0 3.5.4 4.8 1.2a8.37 8.37 0 0 1 3 3.2l-4.3 1.3c-.4-.6-.9-1.1-1.5-1.5-.6-.3-1.3-.5-2-.5-.6 0-1.2.1-1.8.4s-1 .6-1.4 1.1-.7 1-1 1.6c-.2.6-.3 1.3-.3 2.1s.1 1.5.4 2.1c.2.6.6 1.2 1 1.7s.9.8 1.4 1.1 1.1.4 1.7.4c.8 0 1.5-.2 2.2-.6s1.1-.9 1.4-1.5l4.3 1.3c-.6 1.3-1.6 2.4-2.9 3.2-1.4.8-3 1.3-4.9 1.3-1.4 0-2.7-.2-3.8-.7s-2.1-1.1-2.9-2c-.8-.8-1.4-1.8-1.8-2.9-.5-1.2-.7-2.4-.7-3.5z"/><use xlink:href="#C"/><path d="M426.2 26.9c-.6.3-1.3.5-2.2.8s-1.8.4-2.7.4c-.6 0-1.2-.1-1.7-.2-.5-.2-1-.4-1.4-.7s-.7-.8-1-1.3a5.44 5.44 0 0 1-.4-2V14h-2.3v-3.4h2.3V4.9h4.4v5.6h3.6v3.4h-3.6v8.4c0 .6.2 1.1.5 1.3.3.3.7.4 1.2.4s.9-.1 1.4-.2c.4-.2.8-.3 1.1-.4l.8 3.5z"/><use xlink:href="#C" x="32.6"/><path d="M448.5 8.1V3.7h4.4v4.4h-4.4zm0 19.7V10.5h4.4v17.3h-4.4zm24.4 0h-4.4v-9.7c0-1.4-.2-2.4-.7-3s-1.2-1-2-1c-.4 0-.9.1-1.4.3s-.9.4-1.3.7a5.73 5.73 0 0 0-1.1 1.1c-.3.4-.6.9-.7 1.5v10.1h-4.4V10.5h4v3.2c.6-1.1 1.6-2 2.8-2.6s2.6-.9 4.1-.9c1.1 0 2 .2 2.6.6s1.2.9 1.6 1.6.6 1.4.8 2.2l.2 2.5v10.7zm15.7 0l-5-7.5-2.4 2.3v5.1h-4.4v-24h4.4v14.6l6.9-7.8h4.7l-6.4 7.3 6.9 9.9h-4.7zm6.5 0V23h3.6v4.8h-3.6zm6.5-8.6c0-1.2.2-2.4.6-3.4.4-1.1 1-2 1.8-2.8s1.7-1.5 2.9-1.9 2.4-.7 3.8-.7c1.9 0 3.5.4 4.8 1.2a8.37 8.37 0 0 1 3 3.2l-4.3 1.3c-.4-.6-.9-1.1-1.5-1.5-.6-.3-1.3-.5-2-.5-.6 0-1.2.1-1.8.4s-1 .6-1.4 1.1-.7 1-1 1.6c-.2.6-.3 1.3-.3 2.1s.1 1.5.4 2.1c.2.6.6 1.2 1 1.7s.9.8 1.4 1.1 1.1.4 1.7.4c.8 0 1.5-.2 2.2-.6s1.1-.9 1.4-1.5l4.3 1.3c-.6 1.3-1.6 2.4-2.9 3.2-1.4.8-3 1.3-4.9 1.3-1.4 0-2.7-.2-3.8-.7s-2.1-1.1-2.9-2c-.8-.8-1.4-1.8-1.8-2.9s-.7-2.4-.7-3.5zm27.6 8.9c-1.4 0-2.7-.2-3.8-.7s-2.1-1.1-2.9-2c-.8-.8-1.4-1.8-1.8-2.9s-.6-2.2-.6-3.4.2-2.4.6-3.4c.4-1.1 1-2 1.8-2.9.8-.8 1.7-1.5 2.9-2s2.4-.7 3.8-.7 2.7.2 3.8.7 2.1 1.1 2.8 2c.8.8 1.4 1.8 1.8 2.9s.6 2.2.6 3.4-.2 2.3-.6 3.4-1 2-1.8 2.9c-.8.8-1.7 1.5-2.8 2s-2.4.7-3.8.7zm-4.5-8.9c0 .8.1 1.5.3 2.1s.5 1.2 1 1.6c.4.5.9.8 1.4 1.1s1.1.4 1.8.4c.6 0 1.2-.1 1.8-.4.5-.3 1-.6 1.4-1.1s.7-1 1-1.7c.2-.6.3-1.3.3-2.1 0-.7-.1-1.4-.3-2.1-.2-.6-.6-1.2-1-1.6-.4-.5-.9-.8-1.4-1.1-.6-.3-1.1-.4-1.8-.4-.6 0-1.2.1-1.8.4-.5.3-1 .6-1.4 1.1s-.7 1-1 1.6c-.2.7-.3 1.4-.3 2.2zm43.4 8.6h-4.4v-9.7c0-1.4-.2-2.4-.7-3s-1.1-1-2-1-1.7.3-2.5 1-1.3 1.5-1.6 2.6v10.1h-4.4v-9.7c0-1.4-.2-2.4-.7-3s-1.1-1-2-1-1.7.3-2.5 1-1.3 1.5-1.7 2.6v10.1h-4.4V10.5h4v3.2c.6-1.1 1.5-2 2.6-2.6s2.4-.9 3.8-.9c1.5 0 2.6.4 3.4 1.1a4.61 4.61 0 0 1 1.5 2.6c.7-1.2 1.6-2.1 2.7-2.7s2.3-.9 3.7-.9c1.1 0 1.9.2 2.6.6a4.1 4.1 0 0 1 1.6 1.6c.4.7.6 1.4.8 2.2l.2 2.5v10.6z"/></g><defs ><path id="B" d="M218.1 28.1c-1.4 0-2.6-.2-3.8-.7s-2.1-1.1-2.9-1.9-1.4-1.8-1.8-2.8c-.4-1.1-.6-2.2-.6-3.4a10.3 10.3 0 0 1 .6-3.5c.4-1.1 1-2 1.8-2.9a9.99 9.99 0 0 1 2.9-2c1.1-.5 2.4-.7 3.8-.7s2.7.2 3.8.7 2.1 1.1 2.8 1.9c.8.8 1.4 1.8 1.8 2.8.4 1.1.6 2.2.6 3.4v.8c0 .3 0 .5-.1.7h-13.4c.1.7.2 1.3.5 1.8s.6 1 1 1.4.9.7 1.4.9a4.53 4.53 0 0 0 1.6.3 5.42 5.42 0 0 0 2.5-.6 3.29 3.29 0 0 0 1.6-1.7l3.8 1.1c-.6 1.3-1.7 2.4-3.1 3.3-1.2.7-2.8 1.1-4.8 1.1zm4.5-10.4c-.1-1.3-.6-2.3-1.4-3.1s-1.9-1.2-3.1-1.2c-.6 0-1.1.1-1.7.3-.5.2-1 .5-1.4.9a5.02 5.02 0 0 0-1 1.4c-.3.5-.4 1.1-.4 1.7h9z"/><path id="C" d="M412 27.8h-4.4v-9.7c0-1.4-.3-2.4-.8-3s-1.2-1-2.1-1c-.4 0-.8.1-1.3.3-.4.2-.9.4-1.3.7a5.73 5.73 0 0 0-1.1 1.1c-.3.4-.6.9-.7 1.5v10.1h-4.4V3.7h4.4v10c.6-1.1 1.5-2 2.6-2.6s2.3-.9 3.6-.9c1.1 0 2 .2 2.7.6s1.3.9 1.7 1.5.7 1.4.8 2.2c.2.8.2 1.6.2 2.5v10.8z"/></defs></svg>